<?xml version="1.0" encoding="utf-8"?>
<!-- Generator: Adobe Illustrator 24.0.1, SVG Export Plug-In . SVG Version: 6.00 Build 0)  -->
<svg version="1.1" id="图层_1" xmlns="http://www.w3.org/2000/svg" xmlns:xlink="http://www.w3.org/1999/xlink" x="0px" y="0px"
	 viewBox="0 0 1024 1024" style="enable-background:new 0 0 1024 1024;" xml:space="preserve">
<style type="text/css">
	.st0{opacity:0.01;fill:#6A9CD8;}
	.st1{fill:url(#SVGID_1_);}
	.st2{fill:url(#SVGID_2_);}
	.st3{fill:url(#SVGID_3_);}
	.st4{opacity:0.6;}
	.st5{fill:#7AA1F8;}
	.st6{fill:url(#SVGID_4_);}
	.st7{fill:url(#SVGID_5_);}
	.st8{fill:url(#SVGID_6_);}
	.st9{fill:url(#SVGID_7_);stroke:#FFFFFF;stroke-miterlimit:10;}
	.st10{fill-rule:evenodd;clip-rule:evenodd;fill:#F5986A;}
	.st11{fill-rule:evenodd;clip-rule:evenodd;fill:#F8AD72;}
	.st12{fill-rule:evenodd;clip-rule:evenodd;fill:#272B73;}
	.st13{fill-rule:evenodd;clip-rule:evenodd;fill:#262A71;}
	.st14{fill-rule:evenodd;clip-rule:evenodd;fill:#2B3682;}
	.st15{fill-rule:evenodd;clip-rule:evenodd;fill:#7AA1F8;}
	.st16{fill-rule:evenodd;clip-rule:evenodd;fill:#EF8D61;}
	.st17{fill-rule:evenodd;clip-rule:evenodd;fill:#151145;}
	.st18{fill-rule:evenodd;clip-rule:evenodd;fill:#27327B;}
</style>
<rect x="141.29" y="178.14" class="st0" width="741.96" height="666.78"/>
<linearGradient id="SVGID_1_" gradientUnits="userSpaceOnUse" x1="510.6487" y1="492.4429" x2="510.6487" y2="844.5629">
	<stop  offset="4.528621e-07" style="stop-color:#D0DDF8"/>
	<stop  offset="1" style="stop-color:#FFFFFF"/>
</linearGradient>
<ellipse class="st1" cx="510.65" cy="668.5" rx="370.98" ry="176.06"/>
<linearGradient id="SVGID_2_" gradientUnits="userSpaceOnUse" x1="715.8696" y1="778.5983" x2="579.4397" y2="542.2949">
	<stop  offset="0" style="stop-color:#FFFFFF;stop-opacity:0"/>
	<stop  offset="1" style="stop-color:#9DB9E0"/>
</linearGradient>
<polygon class="st2" points="830.87,712.2 570.25,791.96 488.41,594.85 488.41,594.85 "/>
<linearGradient id="SVGID_3_" gradientUnits="userSpaceOnUse" x1="510.6487" y1="177.8495" x2="510.6487" y2="561.2379">
	<stop  offset="4.528621e-07" style="stop-color:#D0DDF8"/>
	<stop  offset="1" style="stop-color:#FFFFFF;stop-opacity:0"/>
</linearGradient>
<path class="st3" d="M727.17,228.58v332.66H294.12c0.72-165.43,1.39-190.87,2.12-356.36h96.99c0.18,29.51,0.18,42.33,0,42.81v0.06
	c0,0,0.12-0.06,0.18-0.12v-0.18c0-8.71,7.01-15.72,15.72-15.72c8.71,0,15.72,7.01,15.72,15.72v9.31h69.29v-78.91h62.16v113.74
	c-0.06,0.24-0.06,0.42-0.06,0.67v38.27c0,5.62,4.53,10.16,10.16,10.16c5.56,0,10.1-4.53,10.1-10.16v-29.81
	c19.53-0.06,33.68-0.12,43.05-0.12c9.37,0,13.97,0.06,14.39,0.12c1.51-0.18,0-23.1,0-23.1h29.57v27.15c0,4.11,3.33,7.44,7.44,7.44
	c4.11,0,7.44-3.33,7.44-7.44v-76.19H727.17z"/>
<g class="st4">
	<g>
		<path class="st5" d="M316.63,211.26c-6.42,0-11.65-5.22-11.65-11.65s5.22-11.65,11.65-11.65s11.65,5.22,11.65,11.65
			S323.05,211.26,316.63,211.26z M316.63,194.45c-2.85,0-5.17,2.32-5.17,5.17c0,2.85,2.32,5.17,5.17,5.17
			c2.85,0,5.17-2.32,5.17-5.17C321.79,196.76,319.48,194.45,316.63,194.45z"/>
	</g>
	<g>
		<circle class="st5" cx="314.52" cy="380.92" r="8.41"/>
	</g>
	<g>
		<circle class="st5" cx="638.93" cy="486.73" r="17.62"/>
	</g>
	<g>
		<circle class="st5" cx="623.21" cy="305.1" r="6.95"/>
	</g>
	<g>
		<circle class="st5" cx="723.39" cy="250.05" r="5.99"/>
	</g>
	<g>
		<circle class="st5" cx="787.46" cy="386.21" r="8.28"/>
	</g>
	<g>
		<circle class="st5" cx="669.3" cy="620.73" r="7.83"/>
	</g>
	<g>
		<path class="st5" d="M559.13,219.67c-6.42,0-11.65-5.22-11.65-11.65s5.22-11.65,11.65-11.65s11.65,5.22,11.65,11.65
			S565.55,219.67,559.13,219.67z M559.13,202.85c-2.85,0-5.17,2.32-5.17,5.17c0,2.85,2.32,5.17,5.17,5.17
			c2.85,0,5.17-2.32,5.17-5.17C564.3,205.17,561.98,202.85,559.13,202.85z"/>
	</g>
	<g>
		<path class="st5" d="M442.97,677.43c-6.42,0-11.65-5.22-11.65-11.65s5.22-11.65,11.65-11.65s11.65,5.22,11.65,11.65
			S449.4,677.43,442.97,677.43z M442.97,660.62c-2.85,0-5.17,2.32-5.17,5.17c0,2.85,2.32,5.17,5.17,5.17c2.85,0,5.17-2.32,5.17-5.17
			C448.14,662.94,445.83,660.62,442.97,660.62z"/>
	</g>
	<g>
		<path class="st5" d="M234.36,484.61h-22.48c-1.96,0-3.55-1.59-3.55-3.55l0,0c0-1.96,1.59-3.55,3.55-3.55h22.48
			c1.96,0,3.55,1.59,3.55,3.55l0,0C237.91,483.02,236.32,484.61,234.36,484.61z"/>
	</g>
	<g>
		<path class="st5" d="M219.43,492.16v-22.2c0-2.04,1.65-3.69,3.69-3.69h0c2.04,0,3.69,1.65,3.69,3.69v22.2
			c0,2.04-1.65,3.69-3.69,3.69h0C221.08,495.85,219.43,494.19,219.43,492.16z"/>
	</g>
	<g>
		<path class="st5" d="M234.44,333.43h-14.6c-1.27,0-2.3-1.03-2.3-2.3l0,0c0-1.27,1.03-2.3,2.3-2.3h14.6c1.27,0,2.3,1.03,2.3,2.3
			l0,0C236.74,332.4,235.71,333.43,234.44,333.43z"/>
	</g>
	<g>
		<path class="st5" d="M224.75,338.34v-14.41c0-1.32,1.07-2.4,2.4-2.4h0c1.32,0,2.4,1.07,2.4,2.4v14.41c0,1.32-1.07,2.4-2.4,2.4h0
			C225.82,340.73,224.75,339.66,224.75,338.34z"/>
	</g>
	<g>
		<path class="st5" d="M502.65,290.77c-6.67-9.69-13.34-19.37-20.01-29.06c1.13-2.15,2.26-4.3,3.39-6.44
			c4.97,0.26,9.95,0.53,14.92,0.79C501.52,267.64,502.08,279.2,502.65,290.77z"/>
	</g>
	<g>
		<path class="st5" d="M495.24,295.17c-9.25-1.7-18.49-3.41-27.74-5.11c-0.57-1.85-1.15-3.71-1.73-5.56
			c2.96-2.66,5.92-5.33,8.88-7.99C481.52,282.73,488.38,288.95,495.24,295.17z"/>
	</g>
	<g>
		<path class="st5" d="M507.24,286.17c0.69-8.3,1.39-16.6,2.08-24.9c1.58-0.67,3.17-1.34,4.75-2.01c2.61,2.38,5.21,4.76,7.82,7.13
			C517.01,272.99,512.12,279.58,507.24,286.17z"/>
	</g>
</g>
<linearGradient id="SVGID_4_" gradientUnits="userSpaceOnUse" x1="514.5629" y1="579.6978" x2="489.5913" y2="536.4458">
	<stop  offset="0" style="stop-color:#FFFFFF;stop-opacity:0"/>
	<stop  offset="1" style="stop-color:#9DB9E0"/>
</linearGradient>
<path class="st6" d="M490.02,593.87c8.04-23.86,16.07-47.73,24.11-71.59"/>
<g>
	<linearGradient id="SVGID_5_" gradientUnits="userSpaceOnUse" x1="489.1024" y1="555.3827" x2="539.425" y2="555.3827">
		<stop  offset="4.475343e-07" style="stop-color:#CEDBF8"/>
		<stop  offset="1" style="stop-color:#92B2F8"/>
	</linearGradient>
	<path class="st7" d="M489.1,593.71L489.1,593.71c16.77-23.36,33.55-46.73,50.32-70.09c-13.2-2.19-26.4-4.38-39.6-6.57
		C496.44,542.08,492.49,568.68,489.1,593.71"/>
	<linearGradient id="SVGID_6_" gradientUnits="userSpaceOnUse" x1="529.2166" y1="301.8215" x2="529.2166" y2="553.8062">
		<stop  offset="4.475343e-07" style="stop-color:#CEDBF8"/>
		<stop  offset="1" style="stop-color:#92B2F8"/>
	</linearGradient>
	<path class="st8" d="M384.18,493.96c87.37,19.95,174.75,39.9,262.12,59.84c9.31-83.99,18.63-167.99,27.94-251.98
		C577.56,365.87,480.87,429.92,384.18,493.96z"/>
	<linearGradient id="SVGID_7_" gradientUnits="userSpaceOnUse" x1="572.0283" y1="594.8483" x2="572.0283" y2="301.7212">
		<stop  offset="4.475343e-07" style="stop-color:#DFE7F8"/>
		<stop  offset="1" style="stop-color:#7AA1F8"/>
	</linearGradient>
	<path class="st9" d="M674.25,301.72c-68.15,70.15-136.3,140.29-204.44,210.44c6.2,27.56,12.41,55.12,18.61,82.69
		c8.51-24.31,17.02-48.61,25.53-72.92C567.38,448.53,620.82,375.12,674.25,301.72z"/>
</g>
<g>
	<path id="圆角矩形-5_32_" class="st10" d="M482.91,406.31c1.73,0,3.14,1.52,3.14,3.4v10.46c0,1.88-1.4,3.4-3.14,3.4
		s-3.14-1.52-3.14-3.4v-10.46C479.77,407.84,481.17,406.31,482.91,406.31z"/>
	<path id="Combined-shape-564_32_" class="st11" d="M478.72,400.56c5.6-0.38,6.46,3.35,6.31,6.22c0.3-0.25,0.67-0.49,1.01-0.47
		c1.16,0.07,1.05,1.57,1.05,1.57s0.15,0.62-0.52,1.57c-0.5,0.72-1.9,1.3-2.42,1.5l-0.2,0.6c0,0-0.83,1.77-1.57,2.61
		c-1.04,1.19-1.57,1.57-1.57,1.57s-1,0.77-2.09,1.05c-1,0.25-2.09,0-2.09,0s-1.32-0.16-1.57-2.09c-0.15-1.19-0.21-2.68-0.21-4.16
		l0-0.37c0.02-2.81,0.21-5.41,0.21-5.41S475.39,400.78,478.72,400.56z"/>
	<path id="形状-17_32_" class="st12" d="M480.82,405.27c0,0-3.42,0.65-5.23,0c-1.85-0.66-2.09-2.61-2.09-2.61
		s-0.05-1.46,0.52-2.61c0.45-0.91,1.57-1.57,1.57-1.57s0.95-0.7,2.09-0.52c0.91,0.14,1.57,1.05,1.57,1.05s1.19,1.18,2.09,1.57
		c0.93,0.4,2.09,0,2.09,0s1.82-0.42,3.14,1.05c2,2.23,1.57,5.23,1.57,5.23s-0.33,1.95-1.05,3.66c-0.58,1.4-1.57,2.09-1.57,2.09
		s-0.52,0.38-1.05,0c-0.59-0.43,0-1.05,0-1.05l0.52-1.05c0,0,2.06,0,2.09-3.14c0.01-0.52-1.05-0.52-1.05-0.52s-0.6-0.01-1.05,0.52
		c-0.25,0.29-0.52,1.57-0.52,1.57s-0.22-2.55-1.05-3.14C482.44,405.08,480.82,405.27,480.82,405.27z"/>
	<path id="形状-30-拷贝_32_" class="st13" d="M441.95,471.36l-0.19,5.75l-15.68-0.52c0,0-0.09-1.74,1.67-3.08
		c1.76-1.34,5.26-0.87,5.26-0.87s1.22,0.1,2.11-0.45c0.69-0.43,1.08-1.01,1.08-1.01L441.95,471.36z"/>
	<path id="形状-30_32_" class="st14" d="M458.96,473.54v5.75h-15.69c0,0-0.15-1.73,1.57-3.14c1.71-1.4,5.23-1.05,5.23-1.05
		s1.22,0.06,2.09-0.52c0.67-0.45,1.05-1.05,1.05-1.05H458.96z"/>
	<path class="st15" d="M497.03,464.09v-36.33c0,0,0.04-1.99-1.04-3.66c-1.07-1.66-3.14-2.62-3.14-2.62l-6.8-3.66
		c0,0-0.57,1.5-1.57,2.61c-1.31,1.46-3.14,2.62-3.14,2.62s-0.7-0.36-1.04-1.05c-0.44-0.86-0.53-2.09-0.53-2.09s-3.81,0.34-6.27,2.62
		c-2.26,2.09-2.62,4.7-2.62,4.7v18.44v5.54v11.48v1.06c0.59,0.32,1.15,0.58,1.66,0.82c6.29,2.92,9.12,2.26,9.98,2.02
		c0.79-0.22,1.5-0.53,2.14-0.9c1.36,0.96,2.59,1.76,3.75,2.33h6.37L497.03,464.09z"/>
	<path id="形状-26_24_" class="st16" d="M509.14,460.26c0,0,2.09,1.64,2.74,2.48c0.54,0.69-1.02,0.58-1.02,0.58
		s-0.06,0.44,0.58,1.02c0.27,0.25,1.36,0.81,1.62,0.96c0.44,0.25,0.55,0.5,0.55,0.5s0.9,1.92-2.5,2.22
		c-1.89,0.17-6.45-3.34-6.45-3.34L509.14,460.26z"/>
	<path class="st15" d="M496.2,424.93c4.33,11.65,8.65,23.31,12.98,34.96c-1.62,0.87-3.23,1.73-4.85,2.6
		c-2.87-7.33-5.73-14.65-8.6-21.98C495.89,435.31,496.05,430.12,496.2,424.93z"/>
	<path class="st17" d="M488.87,461.57c-0.66,1.04-2.03,2.89-4.21,4.12c-0.64,0.37-1.35,0.68-2.14,0.9c-0.86,0.24-3.69,0.9-9.98-2.02
		c-0.51-0.24-1.07-0.5-1.66-0.82c-0.16-0.08-0.33-0.16-0.5-0.26c-2.23-1.2-4.92-2.92-7.74-5.39c-0.95-0.83-1.92-1.75-2.9-2.76
		c-1.34,2.21-2.96,4.59-4.91,7.04c-3.32,4.17-6.73,7.43-9.75,9.92c-2.5-1.02-5-2.04-7.5-3.05c6.77-7.81,13.54-15.62,20.31-23.43
		c3.21,1.14,6.62,2.48,10.18,4.09c0.93,0.41,1.86,0.84,2.81,1.3c0.19,0.09,0.38,0.18,0.57,0.27
		C478.19,454.73,484,458.24,488.87,461.57z"/>
	<path class="st18" d="M497.03,464.09c0,0.5-0.08,0.99-0.24,1.46c-0.41,1.17-1.27,1.98-2.01,2.47c-0.66,0.46-1.23,0.66-1.29,0.69
		c-1.59,0.56-3.23,0.23-5.08-0.69c-1.16-0.57-2.39-1.37-3.75-2.33c-0.83-0.58-1.71-1.22-2.64-1.91c-2.14-1.58-4.97-3.89-8-7.07
		c-0.82,1.85-1.85,3.87-3.14,5.98c-0.16,0.27-0.32,0.53-0.5,0.8c-0.14,0.23-0.28,0.45-0.43,0.68c-3.29,5-6.92,8.67-9.93,11.23
		c-2.43-0.92-4.87-1.85-7.3-2.77c0.59-0.74,1.18-1.49,1.77-2.23c2.71-4.1,5.43-8.2,8.15-12.3c1.81-2.73,3.62-5.46,5.43-8.19
		c0.94-1.42,1.87-2.83,2.81-4.24c0.43-0.65,0.87-1.31,1.3-1.96c6.42,1.76,10.92,4.5,13.69,6.54
		C487.21,451.23,497.03,458.42,497.03,464.09z"/>
</g>
</svg>
